<svg fill="none" height="400" viewBox="0 0 400 400" width="400" xmlns="http://www.w3.org/2000/svg"><g stroke="#000" stroke-linecap="round" stroke-linejoin="round" stroke-opacity=".9" stroke-width="16"><path d="m254.087 154.625c1.247-9.623 2.974-19.222 6.554-28.236 26.095-65.7141 104.803-3.816 53.183 8.433-14.14 3.356-19.949 6.3-31.697 2.426"/><path d="m291.474 154.625c18.759 59.681-54.556 125.349-136.995 104.421"/><path d="m290.652 193.877c-2.711-16.949-17.688-26.805-33.456-30.448-105.616-24.401-83.73 134.551-187.196 157.571"/><path d="m223.93 218.906c16.089 28.172 22.855 46.217-13.603 72.986-36.458 26.77-37.15 17.238-28.767 22.784 11.544 7.639 53.37-4.51 67.182-3.041 10.947 1.165 19.801 3.041 31.823 3.041"/><path d="m262.913 215.125c.789 9.13 1.335 18.256 8.826 23.948"/><path d="m261.446 99.1131c-2.954-1.837-10.82-17.0782-5.63-19.5574 10.554-5.0441 11.32 25.9133 16.375 25.9133.693 0 5.984-11.435 6.652-12.7116 3.113-5.9431 11.129-10.5279 14.331-13.2017"/></g></svg>